<svg xmlns="http://www.w3.org/2000/svg" width="512" height="512" viewBox="0 0 512 512">
  <rect width="512" height="512" rx="64" fill="#1a7a4b"/>
  <!-- Browser window -->
  <rect x="96" y="120" width="320" height="272" rx="16" fill="white" opacity="0.95"/>
  <!-- Title bar -->
  <rect x="96" y="120" width="320" height="44" rx="16" fill="white" opacity="0.95"/>
  <rect x="96" y="148" width="320" height="16" fill="white" opacity="0.95"/>
  <circle cx="128" cy="142" r="8" fill="#ff5f57"/>
  <circle cx="152" cy="142" r="8" fill="#febc2e"/>
  <circle cx="176" cy="142" r="8" fill="#28c840"/>
  <!-- Content lines -->
  <rect x="128" y="190" width="160" height="12" rx="6" fill="#1a7a4b" opacity="0.6"/>
  <rect x="128" y="216" width="256" height="8" rx="4" fill="#1a7a4b" opacity="0.2"/>
  <rect x="128" y="234" width="220" height="8" rx="4" fill="#1a7a4b" opacity="0.2"/>
  <rect x="128" y="252" width="240" height="8" rx="4" fill="#1a7a4b" opacity="0.2"/>
  <!-- CTA button -->
  <rect x="128" y="284" width="120" height="36" rx="8" fill="#25a867"/>
  <rect x="148" y="298" width="80" height="8" rx="4" fill="white"/>
  <!-- Image placeholder -->
  <rect x="128" y="340" width="256" height="32" rx="6" fill="#1a7a4b" opacity="0.1"/>
</svg>
